<svg id="Layer_1" data-name="Layer 1" xmlns="http://www.w3.org/2000/svg" viewBox="0 0 380.02 96.79"><defs><style>.cls-1{fill:#fff;}.cls-2{fill:#00bfa6;}</style></defs><path class="cls-1" d="M440.58,577H423.83V493.31h16.75v33.5H474v-33.5h16.75V577H474V543.56H440.58Z" transform="translate(-346.77 -493.31)"/><path class="cls-1" d="M572.31,577H555.56V560.25h-33.5V577H505.37V526.81a32.6,32.6,0,0,1,2.62-13,34,34,0,0,1,7.15-10.65,33.48,33.48,0,0,1,10.62-7.18,33.67,33.67,0,0,1,26.09,0,33.62,33.62,0,0,1,17.83,17.83,32.6,32.6,0,0,1,2.63,13Zm-16.75-33.44V526.81a16.33,16.33,0,0,0-1.32-6.51,16.93,16.93,0,0,0-3.58-5.34,17.13,17.13,0,0,0-5.34-3.59,16.83,16.83,0,0,0-13,0,16.73,16.73,0,0,0-8.93,8.93,16.5,16.5,0,0,0-1.31,6.51v16.75Z" transform="translate(-346.77 -493.31)"/><path class="cls-1" d="M581.94,518.41a24.21,24.21,0,0,1,2-9.75,25.44,25.44,0,0,1,13.37-13.36,24,24,0,0,1,9.74-2h38.41v16.75H607a8.42,8.42,0,0,0-3.26.64,8.23,8.23,0,0,0-2.66,1.78,8.29,8.29,0,0,0-2.42,5.93,8.43,8.43,0,0,0,.64,3.29,8.16,8.16,0,0,0,4.44,4.47,8.24,8.24,0,0,0,3.26.64h16.75a24.55,24.55,0,0,1,9.78,2,25,25,0,0,1,13.36,13.36,24.58,24.58,0,0,1,2,9.78,24.29,24.29,0,0,1-2,9.74,25.11,25.11,0,0,1-5.37,8,25.39,25.39,0,0,1-8,5.4,24.39,24.39,0,0,1-9.78,2H586.61V560.25h37.17a8.35,8.35,0,0,0,3.27-16,8.44,8.44,0,0,0-3.27-.64H607a24.13,24.13,0,0,1-9.74-2,25.7,25.7,0,0,1-8-5.4,25.43,25.43,0,0,1-5.4-8A24.34,24.34,0,0,1,581.94,518.41Z" transform="translate(-346.77 -493.31)"/><path class="cls-1" d="M676.6,577H659.85V493.31H676.6v33.5H710v-33.5h16.75V577H710V543.56H676.6Z" transform="translate(-346.77 -493.31)"/><path class="cls-2" d="M347,533.93a14.07,14.07,0,0,1,.2-6.45,11.33,11.33,0,0,1,2.91-4.88,17.07,17.07,0,0,1,5.25-3.43,34.42,34.42,0,0,1,7.12-2.19,66.19,66.19,0,0,1,8.55-1.12c3.06-.21,6.24-.3,9.53-.29,4.47,0,9.17.28,14.07.78A135.81,135.81,0,0,1,410,518.87a4.81,4.81,0,0,1,2.65,1.44,3.55,3.55,0,0,1,.85,2.11,2.85,2.85,0,0,1-.27,1.37,4.28,4.28,0,0,1-.83,1.21,3.88,3.88,0,0,1-1.27.87,3.58,3.58,0,0,1-1.56.29c-1.93-.06-4-.2-6.06-.44l-6.61-.75q-3.45-.4-7.11-.77t-7.56-.5q-.19,4.39-.66,9.53c-.31,3.43-.67,6.95-1.06,10.58s-.8,7.27-1.23,10.93-.83,7.2-1.2,10.59-.7,6.55-1,9.46-.52,5.44-.67,7.55a11.63,11.63,0,0,1-.47,2.74,12.61,12.61,0,0,1-.94,2.32,7.4,7.4,0,0,1-1.2,1.69,2.85,2.85,0,0,1-1.27.82,4.14,4.14,0,0,1-3.24-.3c-.92-.54-1.5-1.64-1.76-3.32a8.69,8.69,0,0,1-.07-1.81c-.1-2.61-.1-5.19,0-7.75s.31-5.22.59-8,.63-5.7,1.08-8.78,1-6.44,1.55-10.07,1.26-7.61,2-11.9,1.57-9,2.48-14.12q-2,.23-4,.51c-1.36.19-2.67.43-3.94.73a25.92,25.92,0,0,0-3.51,1.08,10.73,10.73,0,0,0-2.74,1.56,5.79,5.79,0,0,0-1.69,2.15,5,5,0,0,0-.31,2.83s0,.36.05.93a4.82,4.82,0,0,1-.37,1.89,5.26,5.26,0,0,1-1.47,2,5.81,5.81,0,0,1-3.28,1.21,6.15,6.15,0,0,1-3.56-.45,6.27,6.27,0,0,1-2.1-1.68A6.81,6.81,0,0,1,347,533.93Z" transform="translate(-346.77 -493.31)"/><path class="cls-2" d="M416.73,578.33a11.52,11.52,0,0,1-5.59-.38,10.3,10.3,0,0,1-4.19-2.74,13.85,13.85,0,0,1-2.77-4.58,21.16,21.16,0,0,1-1.26-5.79,27.79,27.79,0,0,1,0-4.46,26.31,26.31,0,0,1,.83-4.66,23,23,0,0,1,1.69-4.38,15.57,15.57,0,0,1,2.61-3.68,12.23,12.23,0,0,1,3.52-2.53,11.52,11.52,0,0,1,8.29-.41,9.54,9.54,0,0,1,3.08,1.72,8.07,8.07,0,0,1,2.09,2.68,8.72,8.72,0,0,1,.83,3.52A9.72,9.72,0,0,1,425,557a17.33,17.33,0,0,1-2.82,4.23,24.34,24.34,0,0,1-4.31,3.8,27.7,27.7,0,0,1-5.44,3,10.78,10.78,0,0,0,1.11,1.51,4.37,4.37,0,0,0,1.07.88,3,3,0,0,0,1.1.37,5,5,0,0,0,1.22,0,13.57,13.57,0,0,0,4.29-1.32,37.47,37.47,0,0,0,4.37-2.5c1.42-1,2.77-1.95,4-3s2.35-2,3.25-2.9c1.52,1.42,3,2.83,4.54,4.21A65.65,65.65,0,0,1,431,571c-1,.77-2,1.54-3.1,2.32a36.94,36.94,0,0,1-3.47,2.18,29.88,29.88,0,0,1-3.76,1.75A19.28,19.28,0,0,1,416.73,578.33ZM411.22,562a7.06,7.06,0,0,0,2.69-.92,13.5,13.5,0,0,0,4.73-4.28,4,4,0,0,0,.78-2.37,5.14,5.14,0,0,0-.71-2.58,1.69,1.69,0,0,0-1.49-1,5.25,5.25,0,0,0-4.32,2.26,7.74,7.74,0,0,0-1,2.16,15,15,0,0,0-.53,2.42,19.11,19.11,0,0,0-.15,2.34C411.17,560.82,411.18,561.46,411.22,562Z" transform="translate(-346.77 -493.31)"/><path class="cls-2" d="M467.76,566.69q-.86.91-2.25,2.19a31.83,31.83,0,0,1-3.09,2.47,23.08,23.08,0,0,1-3.6,2.11,10.25,10.25,0,0,1-3.78,1,5.09,5.09,0,0,1-3.7-1.07,9.59,9.59,0,0,1-2.52-3.71,18.53,18.53,0,0,1-2.05,1.92,23.55,23.55,0,0,1-2.62,1.86,20.74,20.74,0,0,1-2.94,1.48,10.71,10.71,0,0,1-3,.78,7.68,7.68,0,0,1-3.16-.32,7.21,7.21,0,0,1-2.76-1.59,8.11,8.11,0,0,1-2-2.81,10.12,10.12,0,0,1-.82-4,19.41,19.41,0,0,1,.6-5.26,26.12,26.12,0,0,1,1.92-5.3,26.55,26.55,0,0,1,3-4.82,21.43,21.43,0,0,1,3.91-3.83,17.73,17.73,0,0,1,4.56-2.46,12.67,12.67,0,0,1,4.9-.73,2.55,2.55,0,0,1,1.3.35,3.15,3.15,0,0,1,.76.68c.2.25.4.49.58.73a1.87,1.87,0,0,0,.71.53,3.49,3.49,0,0,0,.88.24,6.83,6.83,0,0,0,.92.09q.39,0,.81,0c.27,0,.54,0,.8,0a5.22,5.22,0,0,1,1,.15,1.7,1.7,0,0,1,.81.44,2,2,0,0,1,.53.88,4.27,4.27,0,0,1,.14,1.49,16.75,16.75,0,0,1-.46,3.21q-.42,1.77-.9,3.63c-.33,1.24-.62,2.49-.9,3.74a19.37,19.37,0,0,0-.45,3.57,6.59,6.59,0,0,0,.22,2.23,1.13,1.13,0,0,0,1.24.78,4.57,4.57,0,0,0,1.53-.36,10.73,10.73,0,0,0,1.63-.86c.56-.35,1.12-.73,1.68-1.16s1.1-.87,1.61-1.33c1.18-1.06,2.4-2.23,3.64-3.52Q467.12,563.48,467.76,566.69Zm-29.49-1.64a9,9,0,0,0,.13,1.58,4.2,4.2,0,0,0,.44,1.35,2.47,2.47,0,0,0,.82.93,2.1,2.1,0,0,0,1.31.28,3.43,3.43,0,0,0,2.3-1.17,11,11,0,0,0,1.82-2.55,19.48,19.48,0,0,0,1.26-3,17.45,17.45,0,0,0,.64-2.55q1.13-4.67,2.29-9.24a6.41,6.41,0,0,0-2.86.58,9.89,9.89,0,0,0-2.63,1.73,15.71,15.71,0,0,0-2.26,2.58,19.34,19.34,0,0,0-1.76,3.1,18,18,0,0,0-1.12,3.29A12.9,12.9,0,0,0,438.27,565.05Z" transform="translate(-346.77 -493.31)"/><path class="cls-2" d="M477.93,568.39a9.37,9.37,0,0,1,.16-1c.08-.44.19-.94.34-1.5s.29-1.16.46-1.79l.51-1.85c.38-1.45.84-3,1.36-4.63l-.53,0a8,8,0,0,0-1.07,1.16c-.41.53-1,1.3-1.73,2.34s-1.69,2.39-2.82,4.09-2.6,3.85-4.35,6.52a4.37,4.37,0,0,1-1.69,1.62,5.21,5.21,0,0,1-2,.48,4.14,4.14,0,0,1-2.22-.43,3.06,3.06,0,0,1-1.24-1.33,5.39,5.39,0,0,1-.52-1.95,15.76,15.76,0,0,1-.05-2.29,28,28,0,0,1,.31-2.86c.17-1.11.38-2.27.62-3.48s.53-2.45.84-3.71.63-2.45,1-3.59.67-2.17,1-3.1.64-1.69.91-2.27a9.87,9.87,0,0,1,.77-1.43,2.7,2.7,0,0,1,.79-.79,2.22,2.22,0,0,1,1-.31,8.7,8.7,0,0,1,1.49,0c.91.09,1.62.19,2.14.28a2.55,2.55,0,0,1,1.13.46,1.15,1.15,0,0,1,.39.82,11.41,11.41,0,0,1,0,1.38c0,.32-.07.68-.13,1.09s-.16.84-.26,1.3-.22.94-.34,1.43-.24,1-.37,1.43c-.29,1.09-.6,2.23-.92,3.4l.37.36c.05-.05.32-.4.83-1s1.13-1.38,1.87-2.24,1.55-1.75,2.42-2.66a29.56,29.56,0,0,1,2.47-2.37,9.61,9.61,0,0,1,2.37-1.6,5.57,5.57,0,0,1,5.37.61,2.08,2.08,0,0,1,.88,1.95,11.25,11.25,0,0,1-.39,1.92,17,17,0,0,1-.64,1.73c-.23.56-.48,1.1-.72,1.64s-.49,1.08-.71,1.65c-.16.39-.26.64-.29.74a.77.77,0,0,0-.06.21l.35.35.92-.92c.56-.56,1.24-1.23,2.05-2s1.69-1.58,2.61-2.4,1.79-1.54,2.59-2.13a13.65,13.65,0,0,1,2.29-1.41,4.46,4.46,0,0,1,2.63-.29,6.38,6.38,0,0,1,2.76,1.06,1.91,1.91,0,0,1,.92,1.87A19.77,19.77,0,0,1,503,556q-.47,1.47-1,2.88c-.35,1-.68,1.92-1,2.9a20.94,20.94,0,0,0-.69,3.16,4.24,4.24,0,0,0,.18,2.19,1.28,1.28,0,0,0,1.06.91,6,6,0,0,0,1.56-.1,15.17,15.17,0,0,0,1.71-.42,16.59,16.59,0,0,0,1.75-.62c.58-.24,1.14-.5,1.67-.76,1.26-.6,2.52-1.27,3.79-2-.12,1.82-.23,3.64-.35,5.44-1.11.44-2.21.91-3.3,1.42s-2.24,1-3.42,1.38a27.55,27.55,0,0,1-3.84,1,21.12,21.12,0,0,1-4.55.3,3.18,3.18,0,0,1-2-.64,3.68,3.68,0,0,1-1.15-1.7,8.19,8.19,0,0,1-.43-2.53,20.64,20.64,0,0,1,.16-3.16c.13-1.07.32-2.2.57-3.38s.55-2.37.88-3.57l-.52-.05q-4.38,6.2-8.58,13a5.13,5.13,0,0,1-2.14,1.48,7.82,7.82,0,0,1-2.56.39,2.67,2.67,0,0,1-1.7-.47,2.7,2.7,0,0,1-.9-1.22,5.16,5.16,0,0,1-.34-1.66A14.69,14.69,0,0,1,477.93,568.39Z" transform="translate(-346.77 -493.31)"/></svg>